<?xml version="1.0" encoding="iso-8859-1"?>
<svg
  xmlns="http://www.w3.org/2000/svg"
  xmlns:xlink="http://www.w3.org/1999/xlink"
  width="16"
  height="16"
  viewBox="0 0 16 16"
  fill="#9BACA9"
>
<path d="M2,11.0024 L2,13.0024 C2.001,13.5544 2.448,14.0014 3,14.0024 L3,14.0024 L13,14.0024 C13.552,14.0014 13.999,13.5544 14,13.0024 L14,13.0024 L14,11.0024 L16,11.0024 L16,13.0024 C15.999,14.6594 14.657,16.0014 13,16.0024 L13,16.0024 L3,16.0024 C1.343,16.0014 0.001,14.6594 4.08562073e-14,13.0024 L4.08562073e-14,13.0024 L4.08562073e-14,11.0024 L2,11.0024 Z M11.246,1.2945 C11.636,0.9035 12.27,0.9015 12.66,1.2915 L12.66,1.2915 L16.4,5.0095 L12.68,8.7085 C12.289,9.0985 11.655,9.0975 11.266,8.7055 C10.876,8.3135 10.878,7.6815 11.27,7.2915 L11.27,7.2915 L12.568,6.0025 L10.789,6.0025 C9.802,6.0045 9.002,6.8035 9,7.7915 L9,7.7915 L9,12.0025 L7,12.0025 L7,7.7915 C7.001,5.6985 8.696,4.0025 10.789,4.0025 L10.789,4.0025 L12.555,4.0025 L11.25,2.7085 C10.858,2.3195 10.856,1.6865 11.246,1.2945 Z"></path>
</svg>